<svg width="200" height="84" viewBox="0 0 200 84" fill="none" xmlns="http://www.w3.org/2000/svg">
<path d="M200 60.8714H197.134V78.2178H200V60.8714Z" fill="#FBB040"/>
<path d="M185.541 60.8714H182.612V78.2178H185.541V60.8714Z" fill="#FBB040"/>
<path d="M200 60.8714H182.612V63.7942H200V60.8714Z" fill="#FBB040"/>
<path d="M200 75.295H182.612V78.2178H200V75.295Z" fill="#FBB040"/>
<path d="M171.019 60.8714H168.153V78.2178H171.019V60.8714Z" fill="#FBB040"/>
<path d="M150.701 69.5129H147.834V84H150.701V69.5129Z" fill="#FBB040"/>
<path d="M185.541 60.8714H165.223V63.7942H185.541V60.8714Z" fill="#FBB040"/>
<path d="M182.612 75.295H147.834V78.2178H182.612V75.295Z" fill="#FBB040"/>
<path d="M121.783 60.8714H118.854V78.2178H121.783V60.8714Z" fill="#FBB040"/>
<path d="M136.306 60.8714H133.376V78.2178H136.306V60.8714Z" fill="#FBB040"/>
<path d="M136.242 60.8714H115.924V63.7942H136.242V60.8714Z" fill="#FBB040"/>
<path d="M81.2102 60.8714H78.2803V78.2178H81.2102V60.8714Z" fill="#FBB040"/>
<path d="M95.6687 60.8714H92.7388V84H95.6687V60.8714Z" fill="#FBB040"/>
<path d="M95.6688 60.8714H78.2803V63.7942H95.6688V60.8714Z" fill="#FBB040"/>
<path d="M133.376 75.295H78.2803V78.2178H133.376V75.295Z" fill="#FBB040"/>
<path d="M66.688 75.295H23.1848V78.2178H66.688V75.295Z" fill="#FBB040"/>
<path d="M23.2483 69.5129H20.3184V84H23.2483V69.5129Z" fill="#FBB040"/>
<path d="M20.3185 81.0771H2.92993V83.9365H20.3185V81.0771Z" fill="#FBB040"/>
<path d="M2.92994 60.8714H0V84H2.92994V60.8714Z" fill="#FBB040"/>
<path d="M35.2866 10.7383H26.242H23.949H21.656V13.0257H23.949V22.112V24.3994H26.242H35.3503H37.5796V13.0257V10.7383H35.2866ZM35.2866 22.0484H26.242V13.0257H35.3503V22.0484H35.2866Z" fill="#FBB040"/>
<path d="M23.8853 22.8109L16.9427 28.5931L15.2229 30.0545L13.5032 31.5159L14.9681 33.2315L16.6879 31.7701L22.4841 38.7595L23.949 40.4751L25.6688 39.0136L32.6115 33.1679L34.3949 31.7701L27.0701 23.0651L25.6051 21.3495L23.8853 22.8109ZM31.2102 31.5159L24.2038 37.2981L18.4076 30.3722L25.3503 24.59L31.2102 31.5159Z" fill="#FBB040"/>
<path d="M22.8662 39.3313L21.2739 48.2269L20.8917 50.4508L20.5095 52.7383L22.7388 53.1195L23.121 50.8956L32.0382 52.4841L34.2675 52.8654L34.6496 50.6415L36.242 41.7458L36.6242 39.5219L25.4777 37.4887L23.2484 37.1074L22.8662 39.3313ZM34.0764 41.3646L32.484 50.2602L23.5668 48.6717L25.1592 39.7761L34.0764 41.3646Z" fill="#FBB040"/>
<path d="M32.8025 52.6747L37.3248 60.5537L38.4713 62.5234L39.6178 64.4932L41.5923 63.3495L40.4458 61.3797L48.3439 56.8684L50.3184 55.7246L49.1719 53.7549L44.5859 45.9395L43.4394 43.9697L33.5668 49.5613L31.5923 50.705L32.8025 52.6747ZM42.6114 47.0832L47.1337 54.9622L39.2356 59.4735L34.7133 51.5945L42.6114 47.0832Z" fill="#FBB040"/>
<path d="M48.9171 56.6142L57.4521 59.7912L59.554 60.5537L61.6559 61.3162L62.4203 59.2194L60.3821 58.4569L63.5668 49.9425L64.3311 47.8457L62.1655 47.0197L53.6305 43.8427L51.5286 43.0802L47.5795 53.6914L46.8152 55.7882L48.9171 56.6142ZM52.8661 46.003L61.4012 49.18L58.2165 57.6944L49.6814 54.5174L52.8661 46.003Z" fill="#FBB040"/>
<path d="M63.8217 49.2436L72.3567 46.1937L74.5223 45.4312L76.6879 44.6687L75.9236 42.5083L73.758 43.2708L70.7006 34.7564L69.9363 32.5961L67.7707 33.3586L59.2357 36.4085L57.0701 37.171L60.8917 47.8457L61.6561 50.0061L63.8217 49.2436ZM60.0637 38.5688L68.5987 35.5189L71.6561 44.0333L63.0573 47.1468L60.0637 38.5688Z" fill="#FBB040"/>
<path d="M70.5732 34.121L75.1592 26.3056L76.3057 24.3358L77.4522 22.3661L75.4777 21.2224L74.3312 23.1921L66.4968 18.6172L64.5223 17.4735L63.3758 19.4433L58.7261 27.2587L57.5796 29.2284L67.3885 35.0106L69.363 36.1543L70.5732 34.121ZM60.7643 28.3389L65.3503 20.5234L73.1847 25.1619L68.535 32.9773L60.7643 28.3389Z" fill="#FBB040"/>
<path d="M65.9873 18.1725L64.5223 9.21331L64.1402 6.98941L63.758 4.7655L61.5287 5.0832L61.9109 7.30711L52.93 8.76853L50.7007 9.14977L51.0828 11.3737L52.4841 20.3328L52.8663 22.5567L64.0765 20.7141L66.3058 20.3328L65.9873 18.1725ZM54.7771 20.0151L53.3121 11.056L62.293 9.59455L63.758 18.5537L54.7771 20.0151Z" fill="#FBB040"/>
<path d="M52.1656 8.89561L45.2866 2.98638L43.5669 1.52496L41.8471 0L40.3822 1.71558L42.1019 3.177L36.1783 10.0393L34.7134 11.7549L36.4331 13.2163L43.3121 19.1256L45.0319 20.587L52.4204 12.0726L53.8854 10.357L52.1656 8.89561ZM44.7771 17.4735L37.8981 11.5643L43.8217 4.70197L50.7006 10.6112L44.7771 17.4735Z" fill="#FBB040"/>
<path d="M41.8471 24.9077H38.6624H37.8344H37.0063V25.7337H37.8344V28.9107V29.7368H38.6624H41.8471H42.6751V25.7337V24.9077H41.8471ZM41.8471 28.9107H38.6624V25.7337H41.8471V28.9107Z" fill="#FBB040"/>
<path d="M37.8344 29.1649L35.3503 31.1982L34.7134 31.7065L34.0764 32.2149L34.586 32.8503L35.2229 32.3419L37.2611 34.82L37.7707 35.4554L38.4076 34.9471L40.8917 32.9138L41.5286 32.4055L38.9809 29.3556L38.4713 28.7202L37.8344 29.1649ZM40.3822 32.2149L37.9618 34.3117L35.9236 31.8336L38.4076 29.8003L40.3822 32.2149Z" fill="#FBB040"/>
<path d="M37.4523 35.0106L36.879 38.1876L36.7517 38.9501L36.6243 39.7126L37.3886 39.8396L37.516 39.0772L40.7007 39.649L41.465 39.7761L41.5924 39.0136L42.1657 35.8366L42.2931 35.0741L38.344 34.3752L37.5797 34.2481L37.4523 35.0106ZM41.465 35.7095L40.8918 38.8865L37.7071 38.3147L38.2803 35.1377L41.465 35.7095Z" fill="#FBB040"/>
<path d="M40.9554 39.7126L42.5478 42.5083L42.9299 43.2073L43.3121 43.9062L44.0127 43.525L43.6306 42.826L46.4331 41.2375L47.1338 40.8563L46.7516 40.1574L45.1592 37.3616L44.7771 36.6627L41.2739 38.6324L40.5732 39.0136L40.9554 39.7126ZM44.4586 37.7428L46.051 40.5386L43.2484 42.1271L41.656 39.3313L44.4586 37.7428Z" fill="#FBB040"/>
<path d="M46.6879 41.1105L49.6815 42.2542L50.4459 42.5084L51.2102 42.7625L51.465 42L50.7007 41.7459L51.8472 38.7595L52.1019 37.997L51.3376 37.7429L48.344 36.5991L47.5796 36.345L46.1784 40.0938L45.9236 40.8563L46.6879 41.1105ZM48.0892 37.3616L51.0828 38.5053L49.9363 41.4917L46.9427 40.348L48.0892 37.3616Z" fill="#FBB040"/>
<path d="M51.9746 38.5053L55.0319 37.4251L55.7962 37.171L56.5606 36.9168L56.3058 36.1543L55.5415 36.4085L54.4587 33.3585L54.1402 32.6596L53.3759 32.9138L50.3185 33.9939L49.5542 34.2481L50.8918 37.997L51.1466 38.7595L51.9746 38.5053ZM50.637 34.7564L53.6943 33.6762L54.7771 36.7262L51.7198 37.8064L50.637 34.7564Z" fill="#FBB040"/>
<path d="M54.3311 33.168L55.9872 30.4357L56.3693 29.7368L56.7515 29.0378L56.1146 28.5931L55.7324 29.292L52.9935 27.64L52.2292 27.2587L51.8471 27.9577L50.191 30.6899L49.8088 31.3888L53.2483 33.4221L53.949 33.8034L54.3311 33.168ZM50.8916 31.1347L52.5477 28.4024L55.2865 30.0545L53.6305 32.7867L50.8916 31.1347Z" fill="#FBB040"/>
<path d="M52.7387 27.5129L52.2292 24.3359L52.1018 23.5734L51.9744 22.8109L51.1464 22.8745L51.2738 23.6369L48.089 24.1453L47.3247 24.2723L47.4521 25.0348L47.9617 28.2118L48.089 28.9743L52.0381 28.3389L52.8024 28.2118L52.7387 27.5129ZM48.726 28.1483L48.2164 24.9713L51.4011 24.463L51.9107 27.64L48.726 28.1483Z" fill="#FBB040"/>
<path d="M47.8343 24.2088L45.414 22.112L44.777 21.6037L44.1401 21.0953L43.6305 21.7307L44.2675 22.2391L42.1656 24.6536L41.656 25.289L42.2929 25.7973L44.7133 27.8941L45.3503 28.4024L47.9617 25.3525L48.4713 24.7171L47.8343 24.2088ZM45.2229 27.2587L42.8025 25.1619L44.9044 22.7474L47.3248 24.8442L45.2229 27.2587Z" fill="#FBB040"/>
</svg>
