<svg width="111" height="14" viewBox="0 0 111 14" fill="none" xmlns="http://www.w3.org/2000/svg">
<path d="M111 0.867645H109.408V10.5441H111V0.867645Z" fill="#FBB040"/>
<path d="M102.936 0.867645H101.343V10.5441H102.936V0.867645Z" fill="#FBB040"/>
<path d="M111 0.867645H101.343V2.46323H111V0.867645Z" fill="#FBB040"/>
<path d="M111 8.94846H101.343V10.544H111V8.94846Z" fill="#FBB040"/>
<path d="M94.9224 0.867645H93.3301V10.5441H94.9224V0.867645Z" fill="#FBB040"/>
<path d="M83.6734 5.70587H82.0811V13.7353H83.6734V5.70587Z" fill="#FBB040"/>
<path d="M102.987 0.867645H91.7378V2.46323H102.987V0.867645Z" fill="#FBB040"/>
<path d="M101.343 8.94852H82.0811V10.5441H101.343V8.94852Z" fill="#FBB040"/>
<path d="M67.5962 0.867645H66.0039V10.5441H67.5962V0.867645Z" fill="#FBB040"/>
<path d="M75.6094 0.867645H74.0171V10.5441H75.6094V0.867645Z" fill="#FBB040"/>
<path d="M75.6606 0.867645H64.4116V2.46323H75.6606V0.867645Z" fill="#FBB040"/>
<path d="M45.0982 0.867645H43.5059V10.5441H45.0982V0.867645Z" fill="#FBB040"/>
<path d="M53.1114 0.867645H51.519V13.7353H53.1114V0.867645Z" fill="#FBB040"/>
<path d="M53.1625 0.867645H43.5059V2.46323H53.1625V0.867645Z" fill="#FBB040"/>
<path d="M74.0167 8.94852H43.5059V10.5441H74.0167V8.94852Z" fill="#FBB040"/>
<path d="M37.0341 8.94852H12.9438V10.5441H37.0341V8.94852Z" fill="#FBB040"/>
<path d="M12.9439 5.70587H11.3516V13.7353H12.9439V5.70587Z" fill="#FBB040"/>
<path d="M11.3515 12.1397H1.69482V13.7353H11.3515V12.1397Z" fill="#FBB040"/>
<path d="M1.69486 0.867645H0.102539V13.7353H1.69486V0.867645Z" fill="#FBB040"/>
</svg>
