<svg width="17" height="17" viewBox="0 0 17 17" fill="none" xmlns="http://www.w3.org/2000/svg">
<path d="M15.9375 4.78128H14.8219L12.75 8.28753V4.78128H11.6875V12.2188H12.75V9.93441L13.2281 9.13753L14.8219 12.2188H15.9375L13.8656 8.18128L15.9375 4.78128Z" fill="#8E8E8E"/>
<path d="M8.5 12.2188H6.375V4.78128H8.5C9.06307 4.78296 9.60259 5.00739 10.0007 5.40554C10.3989 5.80369 10.6233 6.34321 10.625 6.90628V10.0938C10.6233 10.6568 10.3989 11.1964 10.0007 11.5945C9.60259 11.9927 9.06307 12.2171 8.5 12.2188ZM7.4375 11.1563H8.5C8.78153 11.1554 9.0513 11.0432 9.25037 10.8442C9.44945 10.6451 9.56166 10.3753 9.5625 10.0938V6.90628C9.56166 6.62475 9.44945 6.35498 9.25037 6.15591C9.0513 5.95683 8.78153 5.84462 8.5 5.84378H7.4375V11.1563Z" fill="#8E8E8E"/>
<path d="M4.25 12.2188H1.0625V11.1563H4.25V9.03128H2.125C1.84347 9.03044 1.5737 8.91823 1.37463 8.71915C1.17555 8.52008 1.06334 8.25031 1.0625 7.96878V5.84378C1.06334 5.56225 1.17555 5.29248 1.37463 5.09341C1.5737 4.89433 1.84347 4.78212 2.125 4.78128H5.3125V5.84378H2.125V7.96878H4.25C4.53153 7.96962 4.8013 8.08183 5.00037 8.28091C5.19945 8.47998 5.31166 8.74975 5.3125 9.03128V11.1563C5.31166 11.4378 5.19945 11.7076 5.00037 11.9067C4.8013 12.1057 4.53153 12.2179 4.25 12.2188Z" fill="#8E8E8E"/>
</svg>
