<svg width="10" height="12" viewBox="0 0 10 12" fill="none" xmlns="http://www.w3.org/2000/svg">
<path d="M9.16549 1.28574H7.91415V0.857173C7.91415 0.629845 7.82626 0.411827 7.66981 0.251082C7.51337 0.0903363 7.30118 3.05176e-05 7.07993 3.05176e-05H3.74303C3.52178 3.05176e-05 3.30959 0.0903363 3.15314 0.251082C2.9967 0.411827 2.9088 0.629845 2.9088 0.857173V1.28574H1.65747C1.43622 1.28574 1.22403 1.37605 1.06758 1.5368C0.911133 1.69754 0.823242 1.91556 0.823242 2.14289V11.1429C0.823242 11.3702 0.911133 11.5882 1.06758 11.749C1.22403 11.9097 1.43622 12 1.65747 12H9.16549C9.38674 12 9.59893 11.9097 9.75537 11.749C9.91182 11.5882 9.99971 11.3702 9.99971 11.1429V2.14289C9.99971 1.91556 9.91182 1.69754 9.75537 1.5368C9.59893 1.37605 9.38674 1.28574 9.16549 1.28574ZM3.74303 0.857173H7.07993V2.57146H3.74303V0.857173ZM9.16549 11.1429H1.65747V2.14289H2.9088V3.4286H7.91415V2.14289H9.16549V11.1429Z" fill="#8E8E8E"/>
</svg>
